<mxfile host="app.diagrams.net" modified="2023-10-21T14:02:03.024Z" agent="Mozilla/5.0 (Windows NT 10.0; Win64; x64) AppleWebKit/537.36 (KHTML, like Gecko) Chrome/118.0.0.0 Safari/537.36" etag="J5z9Y_gaU5iPNfhq4ELf" version="22.0.6" type="device">
  <diagram name="Page-1" id="Hv2gwuyREnh0acB_nE_q">
    <mxGraphModel dx="592" dy="297" grid="1" gridSize="10" guides="1" tooltips="1" connect="1" arrows="1" fold="1" page="1" pageScale="1" pageWidth="850" pageHeight="1100" math="0" shadow="0">
      <root>
        <mxCell id="0" />
        <mxCell id="1" parent="0" />
        <mxCell id="lsn7WRXJTVAxYlywAgrg-1" value="&lt;font style=&quot;font-size: 14px;&quot;&gt;Food Panda App&lt;/font&gt;" style="ellipse;whiteSpace=wrap;html=1;aspect=fixed;" vertex="1" parent="1">
          <mxGeometry x="387" y="227" width="105" height="105" as="geometry" />
        </mxCell>
        <mxCell id="lsn7WRXJTVAxYlywAgrg-2" value="Customer" style="rounded=0;whiteSpace=wrap;html=1;" vertex="1" parent="1">
          <mxGeometry x="137" y="240" width="90" height="80" as="geometry" />
        </mxCell>
        <mxCell id="lsn7WRXJTVAxYlywAgrg-6" value="Customer Registration" style="endArrow=classic;html=1;rounded=0;" edge="1" parent="1">
          <mxGeometry x="0.0063" y="10" width="50" height="50" relative="1" as="geometry">
            <mxPoint x="236" y="249.17" as="sourcePoint" />
            <mxPoint x="377" y="250" as="targetPoint" />
            <mxPoint as="offset" />
          </mxGeometry>
        </mxCell>
        <mxCell id="lsn7WRXJTVAxYlywAgrg-7" value="Admin" style="rounded=0;whiteSpace=wrap;html=1;" vertex="1" parent="1">
          <mxGeometry x="394.5" y="50" width="90" height="80" as="geometry" />
        </mxCell>
        <mxCell id="lsn7WRXJTVAxYlywAgrg-8" value="Rider" style="rounded=0;whiteSpace=wrap;html=1;" vertex="1" parent="1">
          <mxGeometry x="651" y="240" width="90" height="80" as="geometry" />
        </mxCell>
        <mxCell id="lsn7WRXJTVAxYlywAgrg-9" value="Restaurants" style="rounded=0;whiteSpace=wrap;html=1;" vertex="1" parent="1">
          <mxGeometry x="396" y="420" width="90" height="80" as="geometry" />
        </mxCell>
        <mxCell id="lsn7WRXJTVAxYlywAgrg-11" value="Order Placement" style="endArrow=classic;html=1;rounded=0;" edge="1" parent="1">
          <mxGeometry x="0.0063" y="10" width="50" height="50" relative="1" as="geometry">
            <mxPoint x="237" y="272.16999999999996" as="sourcePoint" />
            <mxPoint x="378" y="273" as="targetPoint" />
            <mxPoint as="offset" />
          </mxGeometry>
        </mxCell>
        <mxCell id="lsn7WRXJTVAxYlywAgrg-12" value="Order Details" style="endArrow=classic;html=1;rounded=0;" edge="1" parent="1">
          <mxGeometry x="0.0929" y="-9" width="50" height="50" relative="1" as="geometry">
            <mxPoint x="377" y="292" as="sourcePoint" />
            <mxPoint x="236" y="291.16999999999996" as="targetPoint" />
            <mxPoint as="offset" />
          </mxGeometry>
        </mxCell>
        <mxCell id="lsn7WRXJTVAxYlywAgrg-15" value="Order Details" style="endArrow=classic;html=1;rounded=0;" edge="1" parent="1">
          <mxGeometry x="0.0063" y="10" width="50" height="50" relative="1" as="geometry">
            <mxPoint x="499" y="258.58" as="sourcePoint" />
            <mxPoint x="640" y="259.40999999999997" as="targetPoint" />
            <mxPoint as="offset" />
          </mxGeometry>
        </mxCell>
        <mxCell id="lsn7WRXJTVAxYlywAgrg-16" value="Order status / delivery" style="endArrow=classic;html=1;rounded=0;" edge="1" parent="1">
          <mxGeometry x="-0.0063" y="-10" width="50" height="50" relative="1" as="geometry">
            <mxPoint x="640" y="289.41" as="sourcePoint" />
            <mxPoint x="499" y="288.58" as="targetPoint" />
            <mxPoint as="offset" />
          </mxGeometry>
        </mxCell>
        <mxCell id="lsn7WRXJTVAxYlywAgrg-21" value="" style="endArrow=classic;html=1;rounded=0;verticalAlign=middle;labelPosition=center;verticalLabelPosition=middle;align=center;spacingLeft=0;spacingRight=0;spacingBottom=0;" edge="1" parent="1">
          <mxGeometry x="-0.5" y="80" width="50" height="50" relative="1" as="geometry">
            <mxPoint x="433.00000000000045" y="219" as="sourcePoint" />
            <mxPoint x="433.00000000000045" y="139" as="targetPoint" />
            <mxPoint as="offset" />
          </mxGeometry>
        </mxCell>
        <mxCell id="lsn7WRXJTVAxYlywAgrg-22" value="&lt;font style=&quot;font-size: 11px;&quot;&gt;User info&lt;/font&gt;" style="text;html=1;align=center;verticalAlign=middle;resizable=0;points=[];autosize=1;strokeColor=none;fillColor=none;rotation=90;" vertex="1" parent="1">
          <mxGeometry x="406" y="169" width="70" height="30" as="geometry" />
        </mxCell>
        <mxCell id="lsn7WRXJTVAxYlywAgrg-24" value="" style="endArrow=classic;html=1;rounded=0;verticalAlign=middle;labelPosition=center;verticalLabelPosition=middle;align=center;spacingLeft=0;spacingRight=0;spacingBottom=0;" edge="1" parent="1">
          <mxGeometry x="-0.5" y="80" width="50" height="50" relative="1" as="geometry">
            <mxPoint x="412.50000000000045" y="220" as="sourcePoint" />
            <mxPoint x="412.50000000000045" y="140" as="targetPoint" />
            <mxPoint as="offset" />
          </mxGeometry>
        </mxCell>
        <mxCell id="lsn7WRXJTVAxYlywAgrg-25" value="&lt;span style=&quot;font-size: 11px;&quot;&gt;User histroy&lt;/span&gt;" style="text;html=1;align=center;verticalAlign=middle;resizable=0;points=[];autosize=1;strokeColor=none;fillColor=none;rotation=90;" vertex="1" parent="1">
          <mxGeometry x="379" y="169" width="80" height="30" as="geometry" />
        </mxCell>
        <mxCell id="lsn7WRXJTVAxYlywAgrg-28" value="" style="endArrow=classic;html=1;rounded=0;verticalAlign=middle;labelPosition=center;verticalLabelPosition=middle;align=center;spacingLeft=0;spacingRight=0;spacingBottom=0;" edge="1" parent="1">
          <mxGeometry x="-0.5" y="80" width="50" height="50" relative="1" as="geometry">
            <mxPoint x="428.50000000000045" y="415" as="sourcePoint" />
            <mxPoint x="428.50000000000045" y="335" as="targetPoint" />
            <mxPoint as="offset" />
          </mxGeometry>
        </mxCell>
        <mxCell id="lsn7WRXJTVAxYlywAgrg-29" value="&lt;font style=&quot;font-size: 11px;&quot;&gt;Manage Menu&lt;/font&gt;" style="text;html=1;align=center;verticalAlign=middle;resizable=0;points=[];autosize=1;strokeColor=none;fillColor=none;rotation=90;" vertex="1" parent="1">
          <mxGeometry x="394" y="359" width="90" height="30" as="geometry" />
        </mxCell>
        <mxCell id="lsn7WRXJTVAxYlywAgrg-33" value="" style="endArrow=classic;html=1;rounded=0;verticalAlign=middle;labelPosition=center;verticalLabelPosition=middle;align=center;spacingLeft=0;spacingRight=0;spacingBottom=0;" edge="1" parent="1">
          <mxGeometry x="-0.5" y="80" width="50" height="50" relative="1" as="geometry">
            <mxPoint x="456.00000000000045" y="143" as="sourcePoint" />
            <mxPoint x="456.00000000000045" y="223" as="targetPoint" />
            <mxPoint as="offset" />
          </mxGeometry>
        </mxCell>
        <mxCell id="lsn7WRXJTVAxYlywAgrg-34" value="&lt;span style=&quot;font-size: 11px;&quot;&gt;up/down food&lt;br&gt;app info&lt;/span&gt;" style="text;html=1;align=center;verticalAlign=middle;resizable=0;points=[];autosize=1;strokeColor=none;fillColor=none;rotation=90;" vertex="1" parent="1">
          <mxGeometry x="431" y="159" width="90" height="40" as="geometry" />
        </mxCell>
        <mxCell id="lsn7WRXJTVAxYlywAgrg-37" value="Bill Payment" style="endArrow=classic;html=1;rounded=0;" edge="1" parent="1">
          <mxGeometry x="0.0063" y="10" width="50" height="50" relative="1" as="geometry">
            <mxPoint x="240" y="312.16999999999996" as="sourcePoint" />
            <mxPoint x="381" y="313" as="targetPoint" />
            <mxPoint as="offset" />
          </mxGeometry>
        </mxCell>
        <mxCell id="lsn7WRXJTVAxYlywAgrg-39" value="" style="endArrow=classic;html=1;rounded=0;verticalAlign=middle;labelPosition=center;verticalLabelPosition=middle;align=center;spacingLeft=0;spacingRight=0;spacingBottom=0;" edge="1" parent="1">
          <mxGeometry x="-0.5" y="80" width="50" height="50" relative="1" as="geometry">
            <mxPoint x="453.6428571428578" y="337" as="sourcePoint" />
            <mxPoint x="453.6428571428578" y="417" as="targetPoint" />
            <mxPoint as="offset" />
          </mxGeometry>
        </mxCell>
        <mxCell id="lsn7WRXJTVAxYlywAgrg-40" value="&lt;font style=&quot;font-size: 11px;&quot;&gt;Order Details&lt;/font&gt;" style="text;html=1;align=center;verticalAlign=middle;resizable=0;points=[];autosize=1;strokeColor=none;fillColor=none;rotation=90;flipH=0;" vertex="1" parent="1">
          <mxGeometry x="418" y="361" width="90" height="30" as="geometry" />
        </mxCell>
      </root>
    </mxGraphModel>
  </diagram>
</mxfile>
